<svg width="15" height="15" viewBox="0 0 15 15" fill="currentColor" xmlns="http://www.w3.org/2000/svg">
<g clip-path="url(#clip0_3_27)">
<path d="M2.625 4.44865C2.625 3.88838 2.83512 3.35106 3.20913 2.95489C3.58313 2.55872 4.0904 2.33615 4.61932 2.33615C5.14825 2.33615 5.65551 2.55872 6.02952 2.95489C6.40352 3.35106 6.61364 3.88838 6.61364 4.44865C6.61364 5.00892 6.40352 5.54624 6.02952 5.94241C5.65551 6.33858 5.14825 6.56115 4.61932 6.56115C4.0904 6.56115 3.58313 6.33858 3.20913 5.94241C2.83512 5.54624 2.625 5.00892 2.625 4.44865ZM4.61932 1.39726C3.85532 1.39726 3.1226 1.71875 2.58237 2.29099C2.04214 2.86324 1.73864 3.63937 1.73864 4.44865C1.73864 5.25793 2.04214 6.03406 2.58237 6.60631C3.1226 7.17856 3.85532 7.50004 4.61932 7.50004C5.38333 7.50004 6.11604 7.17856 6.65627 6.60631C7.1965 6.03406 7.5 5.25793 7.5 4.44865C7.5 3.63937 7.1965 2.86324 6.65627 2.29099C6.11604 1.71875 5.38333 1.39726 4.61932 1.39726ZM9.66007 12.3306C10.1369 12.5372 10.737 12.6639 11.4886 12.6639C13.1559 12.6639 14.0777 12.0368 14.5634 11.3176C14.8168 10.9402 14.9757 10.5008 15.0252 10.0407C15.0297 9.99793 15.0326 9.95502 15.0341 9.91205V9.84726C15.0341 9.66232 14.9997 9.47918 14.9329 9.30832C14.8661 9.13745 14.7681 8.9822 14.6447 8.85142C14.5212 8.72064 14.3747 8.61691 14.2133 8.54613C14.052 8.47536 13.8791 8.43893 13.7045 8.43893H9.60069C9.81341 8.71121 9.97296 9.02949 10.066 9.37782H13.7045C13.8221 9.37782 13.9348 9.42728 14.0179 9.51531C14.101 9.60335 14.1477 9.72276 14.1477 9.84726V9.89796L14.1433 9.94491C14.1094 10.2426 14.0058 10.5266 13.8419 10.7711C13.5521 11.2021 12.9228 11.725 11.4886 11.725C10.8398 11.725 10.3559 11.618 9.99334 11.4612C9.92066 11.7241 9.81519 12.0208 9.66007 12.3306ZM-0.0340881 10.3167C-0.0340881 9.81869 0.152681 9.34107 0.485132 8.98892C0.817582 8.63677 1.26848 8.43893 1.73864 8.43893H7.5C7.97016 8.43893 8.42106 8.63677 8.75351 8.98892C9.08596 9.34107 9.27273 9.81869 9.27273 10.3167V10.3956C9.27273 10.405 9.27273 10.4172 9.27096 10.4331C9.26017 10.619 9.23498 10.8037 9.19562 10.9852C9.12028 11.3307 8.97048 11.7926 8.66823 12.2565C8.04689 13.2085 6.84675 14.0723 4.61932 14.0723C2.39189 14.0723 1.19175 13.2085 0.570412 12.2565C0.243188 11.7516 0.0391545 11.1687 -0.0234518 10.5599C-0.0287483 10.5053 -0.0322958 10.4505 -0.0340881 10.3956V10.3167ZM0.852276 10.373V10.3899L0.85848 10.4679C0.906507 10.9179 1.05808 11.3487 1.29989 11.7222C1.73155 12.3832 2.63653 13.1334 4.61932 13.1334C6.60212 13.1334 7.50709 12.3832 7.93875 11.7222C8.18063 11.3487 8.33221 10.918 8.38016 10.4679C8.38307 10.442 8.38484 10.416 8.38548 10.3899L8.38637 10.374V10.3167C8.38637 10.0677 8.29298 9.82889 8.12676 9.65281C7.96053 9.47674 7.73508 9.37782 7.5 9.37782H1.73864C1.50356 9.37782 1.27811 9.47674 1.11189 9.65281C0.94566 9.82889 0.852276 10.0677 0.852276 10.3167V10.373ZM10.1591 5.15282C10.1591 4.7793 10.2992 4.42109 10.5485 4.15698C10.7978 3.89286 11.136 3.74448 11.4886 3.74448C11.8413 3.74448 12.1794 3.89286 12.4288 4.15698C12.6781 4.42109 12.8182 4.7793 12.8182 5.15282C12.8182 5.52633 12.6781 5.88455 12.4288 6.14866C12.1794 6.41277 11.8413 6.56115 11.4886 6.56115C11.136 6.56115 10.7978 6.41277 10.5485 6.14866C10.2992 5.88455 10.1591 5.52633 10.1591 5.15282ZM11.4886 2.8056C10.9009 2.8056 10.3373 3.05289 9.92176 3.49308C9.50619 3.93327 9.27273 4.5303 9.27273 5.15282C9.27273 5.77534 9.50619 6.37237 9.92176 6.81255C10.3373 7.25274 10.9009 7.50004 11.4886 7.50004C12.0763 7.50004 12.64 7.25274 13.0555 6.81255C13.4711 6.37237 13.7045 5.77534 13.7045 5.15282C13.7045 4.5303 13.4711 3.93327 13.0555 3.49308C12.64 3.05289 12.0763 2.8056 11.4886 2.8056Z" fill="white"/>
</g>
<defs>
<clipPath id="clip0_3_27">
<rect width="15" height="13" fill="white" transform="translate(0 1)"/>
</clipPath>
</defs>
</svg>
