<svg width="15" height="15" viewBox="0 0 15 15" fill="currentColor" xmlns="http://www.w3.org/2000/svg">
<g clip-path="url(#clip0_3_4)">
<g clip-path="url(#clip1_3_4)">
<path d="M10.625 8.2292C10.7908 8.2292 10.9497 8.15786 11.067 8.03088C11.1842 7.90391 11.25 7.73169 11.25 7.55211C11.25 7.37254 11.1842 7.20032 11.067 7.07334C10.9497 6.94637 10.7908 6.87503 10.625 6.87503C10.4593 6.87503 10.3003 6.94637 10.1831 7.07334C10.0659 7.20032 10 7.37254 10 7.55211C10 7.73169 10.0659 7.90391 10.1831 8.03088C10.3003 8.15786 10.4593 8.2292 10.625 8.2292ZM10.625 10.9375C10.7908 10.9375 10.9497 10.8662 11.067 10.7392C11.1842 10.6122 11.25 10.44 11.25 10.2604C11.25 10.0809 11.1842 9.90865 11.067 9.78168C10.9497 9.6547 10.7908 9.58336 10.625 9.58336C10.4593 9.58336 10.3003 9.6547 10.1831 9.78168C10.0659 9.90865 10 10.0809 10 10.2604C10 10.44 10.0659 10.6122 10.1831 10.7392C10.3003 10.8662 10.4593 10.9375 10.625 10.9375ZM8.12502 7.55211C8.12502 7.73169 8.05917 7.90391 7.94196 8.03088C7.82475 8.15786 7.66578 8.2292 7.50002 8.2292C7.33425 8.2292 7.17528 8.15786 7.05807 8.03088C6.94086 7.90391 6.87502 7.73169 6.87502 7.55211C6.87502 7.37254 6.94086 7.20032 7.05807 7.07334C7.17528 6.94637 7.33425 6.87503 7.50002 6.87503C7.66578 6.87503 7.82475 6.94637 7.94196 7.07334C8.05917 7.20032 8.12502 7.37254 8.12502 7.55211ZM8.12502 10.2604C8.12502 10.44 8.05917 10.6122 7.94196 10.7392C7.82475 10.8662 7.66578 10.9375 7.50002 10.9375C7.33425 10.9375 7.17528 10.8662 7.05807 10.7392C6.94086 10.6122 6.87502 10.44 6.87502 10.2604C6.87502 10.0809 6.94086 9.90865 7.05807 9.78168C7.17528 9.6547 7.33425 9.58336 7.50002 9.58336C7.66578 9.58336 7.82475 9.6547 7.94196 9.78168C8.05917 9.90865 8.12502 10.0809 8.12502 10.2604ZM4.37502 8.2292C4.54078 8.2292 4.69975 8.15786 4.81696 8.03088C4.93417 7.90391 5.00002 7.73169 5.00002 7.55211C5.00002 7.37254 4.93417 7.20032 4.81696 7.07334C4.69975 6.94637 4.54078 6.87503 4.37502 6.87503C4.20925 6.87503 4.05028 6.94637 3.93307 7.07334C3.81586 7.20032 3.75002 7.37254 3.75002 7.55211C3.75002 7.73169 3.81586 7.90391 3.93307 8.03088C4.05028 8.15786 4.20925 8.2292 4.37502 8.2292ZM4.37502 10.9375C4.54078 10.9375 4.69975 10.8662 4.81696 10.7392C4.93417 10.6122 5.00002 10.44 5.00002 10.2604C5.00002 10.0809 4.93417 9.90865 4.81696 9.78168C4.69975 9.6547 4.54078 9.58336 4.37502 9.58336C4.20925 9.58336 4.05028 9.6547 3.93307 9.78168C3.81586 9.90865 3.75002 10.0809 3.75002 10.2604C3.75002 10.44 3.81586 10.6122 3.93307 10.7392C4.05028 10.8662 4.20925 10.9375 4.37502 10.9375Z" fill="white"/>
<path fill-rule="evenodd" clip-rule="evenodd" d="M4.37501 -0.0650787C4.49934 -0.0650787 4.61856 -0.0115772 4.70647 0.0836561C4.79438 0.178889 4.84376 0.308054 4.84376 0.442734V0.959348C5.25751 0.950546 5.71314 0.950546 6.21439 0.950546H8.78501C9.28689 0.950546 9.74251 0.950546 10.1563 0.959348V0.442734C10.1563 0.308054 10.2057 0.178889 10.2936 0.0836561C10.3815 -0.0115772 10.5007 -0.0650787 10.625 -0.0650787C10.7493 -0.0650787 10.8686 -0.0115772 10.9565 0.0836561C11.0444 0.178889 11.0938 0.308054 11.0938 0.442734V1.00268C11.2563 1.01622 11.41 1.03315 11.5556 1.05414C12.2881 1.16112 12.8813 1.38591 13.3494 1.89237C13.8169 2.3995 14.0244 3.04206 14.1231 3.8356C14.2188 4.60747 14.2188 5.59263 14.2188 6.83711V8.26711C14.2188 9.51159 14.2188 10.4974 14.1231 11.2686C14.0244 12.0622 13.8169 12.7047 13.3494 13.2118C12.8813 13.7183 12.2881 13.9431 11.5556 14.0501C10.8431 14.1537 9.93376 14.1537 8.78501 14.1537H6.21501C5.06626 14.1537 4.15627 14.1537 3.44439 14.0501C2.71189 13.9431 2.11877 13.7183 1.65064 13.2118C1.18314 12.7047 0.97564 12.0622 0.87689 11.2686C0.781265 10.4967 0.781265 9.51159 0.781265 8.26711V6.83711C0.781265 5.59263 0.781265 4.6068 0.87689 3.8356C0.97564 3.04206 1.18314 2.3995 1.65064 1.89237C2.11877 1.38591 2.71189 1.16112 3.44439 1.05414C3.59002 1.03315 3.74439 1.01622 3.90626 1.00268V0.442734C3.90626 0.308054 3.95565 0.178889 4.04356 0.0836561C4.13147 -0.0115772 4.25069 -0.0650787 4.37501 -0.0650787ZM3.56877 2.06096C2.94064 2.15237 2.57814 2.32435 2.31377 2.61075C2.04939 2.89716 1.89064 3.28987 1.80627 3.97101C1.79189 4.08612 1.78002 4.20799 1.77002 4.33596H13.23C13.22 4.20732 13.2081 4.08612 13.1938 3.97034C13.1094 3.28987 12.9506 2.89716 12.6863 2.61075C12.4219 2.32435 12.0594 2.15237 11.4306 2.06096C10.7888 1.96753 9.94189 1.96617 8.75001 1.96617H6.25001C5.05814 1.96617 4.21189 1.96753 3.56877 2.06096ZM1.71877 6.87503C1.71877 6.2968 1.71877 5.79372 1.72689 5.35159H13.2731C13.2813 5.79372 13.2813 6.2968 13.2813 6.87503V8.22919C13.2813 9.52039 13.28 10.4378 13.1938 11.1339C13.1094 11.8143 12.9506 12.2071 12.6863 12.4935C12.4219 12.7799 12.0594 12.9518 11.4306 13.0433C10.7888 13.1367 9.94189 13.138 8.75001 13.138H6.25001C5.05814 13.138 4.21189 13.1367 3.56877 13.0433C2.94064 12.9518 2.57814 12.7799 2.31377 12.4935C2.04939 12.2071 1.89064 11.8143 1.80627 11.1332C1.72002 10.4378 1.71877 9.52039 1.71877 8.22919V6.87503Z" fill="white"/>
</g>
</g>
<defs>
<clipPath id="clip0_3_4">
<rect width="15" height="15" fill="white"/>
</clipPath>
<clipPath id="clip1_3_4">
<rect width="15" height="15" fill="white"/>
</clipPath>
</defs>
</svg>
