<svg width="15" height="15" viewBox="0 0 15 15" fill="currentColor" xmlns="http://www.w3.org/2000/svg">
<g clip-path="url(#clip0_3_10)">
<path d="M7.5 1.8125C7.17677 1.8125 6.86677 1.9409 6.63821 2.16946C6.40965 2.39802 6.28125 2.70802 6.28125 3.03125C6.28125 3.35448 6.40965 3.66448 6.63821 3.89304C6.86677 4.1216 7.17677 4.25 7.5 4.25C7.82323 4.25 8.13323 4.1216 8.36179 3.89304C8.59035 3.66448 8.71875 3.35448 8.71875 3.03125C8.71875 2.70802 8.59035 2.39802 8.36179 2.16946C8.13323 1.9409 7.82323 1.8125 7.5 1.8125ZM5.46875 3.03125C5.46875 2.49253 5.68276 1.97587 6.06369 1.59494C6.44462 1.21401 6.96128 1 7.5 1C8.03872 1 8.55538 1.21401 8.93631 1.59494C9.31724 1.97587 9.53125 2.49253 9.53125 3.03125C9.53125 3.56997 9.31724 4.08663 8.93631 4.46756C8.55538 4.84849 8.03872 5.0625 7.5 5.0625C6.96128 5.0625 6.44462 4.84849 6.06369 4.46756C5.68276 4.08663 5.46875 3.56997 5.46875 3.03125ZM11.9688 2.625C11.7533 2.625 11.5466 2.7106 11.3942 2.86298C11.2419 3.01535 11.1562 3.22201 11.1562 3.4375C11.1562 3.65299 11.2419 3.85965 11.3942 4.01202C11.5466 4.1644 11.7533 4.25 11.9688 4.25C12.1842 4.25 12.3909 4.1644 12.5433 4.01202C12.6956 3.85965 12.7812 3.65299 12.7812 3.4375C12.7812 3.22201 12.6956 3.01535 12.5433 2.86298C12.3909 2.7106 12.1842 2.625 11.9688 2.625ZM10.3438 3.4375C10.3438 3.00652 10.515 2.5932 10.8197 2.28845C11.1244 1.9837 11.5378 1.8125 11.9688 1.8125C12.3997 1.8125 12.8131 1.9837 13.1178 2.28845C13.4225 2.5932 13.5938 3.00652 13.5938 3.4375C13.5938 3.86848 13.4225 4.2818 13.1178 4.58655C12.8131 4.8913 12.3997 5.0625 11.9688 5.0625C11.5378 5.0625 11.1244 4.8913 10.8197 4.58655C10.515 4.2818 10.3438 3.86848 10.3438 3.4375ZM2.21875 3.4375C2.21875 3.22201 2.30435 3.01535 2.45673 2.86298C2.6091 2.7106 2.81576 2.625 3.03125 2.625C3.24674 2.625 3.4534 2.7106 3.60577 2.86298C3.75815 3.01535 3.84375 3.22201 3.84375 3.4375C3.84375 3.65299 3.75815 3.85965 3.60577 4.01202C3.4534 4.1644 3.24674 4.25 3.03125 4.25C2.81576 4.25 2.6091 4.1644 2.45673 4.01202C2.30435 3.85965 2.21875 3.65299 2.21875 3.4375ZM3.03125 1.8125C2.60027 1.8125 2.18695 1.9837 1.8822 2.28845C1.57745 2.5932 1.40625 3.00652 1.40625 3.4375C1.40625 3.86848 1.57745 4.2818 1.8822 4.58655C2.18695 4.8913 2.60027 5.0625 3.03125 5.0625C3.46223 5.0625 3.87555 4.8913 4.1803 4.58655C4.48505 4.2818 4.65625 3.86848 4.65625 3.4375C4.65625 3.00652 4.48505 2.5932 4.1803 2.28845C3.87555 1.9837 3.46223 1.8125 3.03125 1.8125ZM3.51875 11.5609C3.29875 11.5719 3.07881 11.5381 2.87229 11.4614C2.66577 11.3848 2.47698 11.267 2.3174 11.1152C2.15781 10.9634 2.03076 10.7807 1.94397 10.5782C1.85717 10.3758 1.81244 10.1578 1.8125 9.9375V6.89062C1.8125 6.83675 1.8339 6.78509 1.87199 6.74699C1.91009 6.7089 1.96175 6.6875 2.01562 6.6875H3.44887C3.48137 6.38931 3.587 6.11225 3.74544 5.875H2.01562C1.455 5.875 1 6.33 1 6.89062V9.9375C0.999962 10.2853 1.07438 10.6292 1.21824 10.9459C1.3621 11.2626 1.57208 11.5448 1.83408 11.7736C2.09607 12.0025 2.404 12.1726 2.73718 12.2725C3.07036 12.3724 3.42107 12.3999 3.76575 12.3531C3.65639 12.0982 3.57362 11.8327 3.51875 11.5609ZM11.2342 12.3531C11.5789 12.3999 11.9296 12.3724 12.2628 12.2725C12.596 12.1726 12.9039 12.0025 13.1659 11.7736C13.4279 11.5448 13.6379 11.2626 13.7818 10.9459C13.9256 10.6292 14 10.2853 14 9.9375V6.89062C14 6.33 13.545 5.875 12.9844 5.875H11.2546C11.4138 6.11225 11.5186 6.38931 11.5511 6.6875H12.9844C13.0382 6.6875 13.0899 6.7089 13.128 6.74699C13.1661 6.78509 13.1875 6.83675 13.1875 6.89062V9.9375C13.1876 10.1578 13.1428 10.3758 13.056 10.5782C12.9692 10.7807 12.8422 10.9634 12.6826 11.1152C12.523 11.267 12.3342 11.3848 12.1277 11.4614C11.9212 11.5381 11.7012 11.5719 11.4812 11.5609C11.4264 11.8327 11.3436 12.0982 11.2342 12.3531ZM5.26562 5.875C4.705 5.875 4.25 6.33 4.25 6.89062V10.75C4.25 11.612 4.59241 12.4386 5.2019 13.0481C5.8114 13.6576 6.63805 14 7.5 14C8.36195 14 9.1886 13.6576 9.7981 13.0481C10.4076 12.4386 10.75 11.612 10.75 10.75V6.89062C10.75 6.33 10.295 5.875 9.73438 5.875H5.26562ZM5.0625 6.89062C5.0625 6.83675 5.0839 6.78509 5.12199 6.74699C5.16009 6.7089 5.21175 6.6875 5.26562 6.6875H9.73438C9.78825 6.6875 9.83991 6.7089 9.87801 6.74699C9.9161 6.78509 9.9375 6.83675 9.9375 6.89062V10.75C9.9375 11.3965 9.68069 12.0165 9.22357 12.4736C8.76645 12.9307 8.14647 13.1875 7.5 13.1875C6.85353 13.1875 6.23355 12.9307 5.77643 12.4736C5.31931 12.0165 5.0625 11.3965 5.0625 10.75V6.89062Z" fill="#252525"/>
</g>
<defs>
<clipPath id="clip0_3_10">
<rect width="13" height="13" fill="white" transform="translate(1 1)"/>
</clipPath>
</defs>
</svg>
